<svg width="400" height="400" viewBox="0 0 400 400" fill="none" xmlns="http://www.w3.org/2000/svg">
  <!-- Sport Watch -->
  <circle cx="200" cy="200" r="180" fill="#1F2937" stroke="#374151" stroke-width="4"/>
  <circle cx="200" cy="200" r="170" fill="#111827" stroke="#4B5563" stroke-width="2"/>

  <!-- Watch face -->
  <circle cx="200" cy="200" r="140" fill="#1F2937" stroke="#374151" stroke-width="1"/>

  <!-- Digital display -->
  <rect x="170" y="180" width="60" height="25" rx="3" fill="#000000"/>
  <text x="200" y="197" text-anchor="middle" fill="#00FF00" font-family="monospace" font-size="12">12:45:30</text>

  <!-- Function buttons -->
  <rect x="150" y="160" width="15" height="15" rx="2" fill="#4B5563"/>
  <rect x="235" y="160" width="15" height="15" rx="2" fill="#4B5563"/>
  <rect x="235" y="225" width="15" height="15" rx="2" fill="#4B5563"/>

  <!-- Sport band -->
  <rect x="140" y="20" width="120" height="30" rx="15" fill="#374151"/>
  <rect x="140" y="350" width="120" height="30" rx="15" fill="#374151"/>

  <!-- Band holes -->
  <circle cx="155" cy="35" r="2" fill="#6B7280"/>
  <circle cx="170" cy="35" r="2" fill="#6B7280"/>
  <circle cx="185" cy="35" r="2" fill="#6B7280"/>
  <circle cx="200" cy="35" r="2" fill="#6B7280"/>
  <circle cx="215" cy="35" r="2" fill="#6B7280"/>
  <circle cx="230" cy="35" r="2" fill="#6B7280"/>
  <circle cx="245" cy="35" r="2" fill="#6B7280"/>
</svg>